<svg width="52" height="102" viewBox="0 0 52 102" fill="none" xmlns="http://www.w3.org/2000/svg">
<path d="M0.713062 93.6799C5.01778 92.0738 9.53378 92.1265 14.0234 91.4683C18.064 90.8627 22.0782 89.8622 25.8548 88.3087C34.2001 84.8333 40.9873 78.2772 43.2057 69.3516C44.6846 63.2958 42.5719 56.2132 38.6369 50.842C37.3164 51.5529 35.9959 52.1848 34.6491 52.7114C27.5714 55.397 16.9284 56.2396 10.6694 51C7.57949 48.4197 8.26613 42.2587 9.08482 38.7832C9.74506 35.9133 12.518 34.0176 15.1062 32.8591C22.1574 29.7259 30.5292 31.9639 35.9695 37.0981C36.8939 37.967 37.7126 38.9148 38.4784 39.9153C42.387 37.888 45.873 35.0707 48.2235 31.4899C48.7517 30.6737 49.2798 29.7785 49.676 28.8833C49.7024 28.8043 49.7288 28.699 49.7552 28.62C49.227 27.9091 49.0686 26.4084 48.6724 25.5395C48.2763 24.6443 47.8009 23.8018 47.3256 22.9592C45.2656 19.4837 42.5983 16.2716 39.5084 13.665C34.3586 9.32061 26.9375 5.50285 20.0447 7.1616C19.8334 7.21426 19.0676 1.55344 20.1503 1.18483C29.3936 -1.92204 37.8182 1.39546 44.3413 8.34642C51.419 15.903 53.6374 27.0929 50.8116 37.0191C49.5439 41.5214 46.5597 45.2339 42.8624 48.1038C44.2092 51.8689 44.9223 55.8709 45.2392 59.8203C45.873 68.3247 45.2656 77.8296 41.0137 85.4388C37.3428 91.9948 30.9518 96.4972 23.9533 98.9985C16.9548 101.526 7.6059 103.606 0.607426 100.289C-0.237675 99.8673 -0.184856 94.0222 0.713062 93.6799ZM20.9954 42.048C19.7542 42.127 18.513 42.3376 17.2981 42.6536C18.3545 42.8906 19.3316 43.0749 19.9655 43.1539C22.7913 43.6015 25.6699 43.5488 28.4693 43.1012C26.0924 42.3113 23.5307 41.89 20.9954 42.048Z" fill="#FFCF0E"/>
</svg>
