<svg width="52" height="102" viewBox="0 0 52 102" fill="none" xmlns="http://www.w3.org/2000/svg">
<path d="M51.2869 93.6799C46.9822 92.0738 42.4662 92.1265 37.9766 91.4683C33.936 90.8627 29.9218 89.8622 26.1452 88.3087C17.7999 84.8332 11.0127 78.2772 8.7943 69.3516C7.31538 63.2958 9.42813 56.2132 13.3631 50.842C14.6836 51.5529 16.0041 52.1848 17.3509 52.7114C24.4286 55.397 35.0716 56.2395 41.3306 51C44.4205 48.4197 43.7339 42.2586 42.9152 38.7832C42.2549 35.9133 39.482 34.0175 36.8938 32.8591C29.8426 29.7259 21.4708 31.9639 16.0305 37.0981C15.1061 37.967 14.2874 38.9148 13.5216 39.9153C9.61299 37.888 6.12696 35.0707 3.77653 31.4899C3.24834 30.6737 2.72016 29.7785 2.32402 28.8833C2.29761 28.8043 2.2712 28.699 2.24479 28.62C2.77297 27.9091 2.93143 26.4084 3.32757 25.5395C3.72371 24.6443 4.19908 23.8018 4.67445 22.9592C6.73438 19.4837 9.40172 16.2716 12.4916 13.6649C17.6414 9.3206 25.0625 5.50284 31.9553 7.16159C32.1666 7.21425 32.9324 1.55343 31.8497 1.18482C22.6064 -1.92204 14.1818 1.39546 7.6587 8.34641C0.580999 15.9029 -1.63739 27.0929 1.18841 37.0191C2.45606 41.5214 5.44032 45.2339 9.13763 48.1038C7.79075 51.8689 7.0777 55.8709 6.76079 59.8203C6.12696 68.3247 6.73438 77.8296 10.9863 85.4388C14.6572 91.9948 21.0482 96.4972 28.0467 98.9984C35.0452 101.526 44.3941 103.606 51.3926 100.289C52.2377 99.8673 52.1849 94.0222 51.2869 93.6799ZM31.0046 42.048C32.2458 42.127 33.487 42.3376 34.7019 42.6536C33.6455 42.8906 32.6684 43.0749 32.0345 43.1538C29.2087 43.6014 26.3301 43.5488 23.5307 43.1012C25.9076 42.3113 28.4693 41.89 31.0046 42.048Z" fill="#FFCF0E"/>
</svg>
