<svg width="36" height="70" viewBox="0 0 36 70" fill="none" xmlns="http://www.w3.org/2000/svg">
<path d="M35.5063 64.2902C32.5261 63.188 29.3996 63.2241 26.2915 62.7724C23.4941 62.3568 20.715 61.6702 18.1005 60.6041C12.3229 58.2189 7.62411 53.7197 6.08831 47.5943C5.06444 43.4384 6.52711 38.5777 9.25134 34.8916C10.1655 35.3795 11.0797 35.8132 12.0121 36.1745C16.9121 38.0176 24.2803 38.5958 28.6134 35C30.7526 33.2293 30.2772 29.0011 29.7104 26.6159C29.2534 24.6464 27.3336 23.3454 25.5418 22.5504C20.6602 20.4001 14.8643 21.936 11.098 25.4595C10.458 26.0558 9.89125 26.7063 9.36104 27.3929C6.65509 26.0016 4.24169 24.0682 2.61446 21.6108C2.2488 21.0506 1.88313 20.4363 1.60888 19.8219C1.59059 19.7677 1.57231 19.6954 1.55403 19.6412C1.9197 19.1534 2.0294 18.1234 2.30365 17.5271C2.5779 16.9128 2.907 16.3346 3.2361 15.7564C4.6622 13.3712 6.50883 11.1668 8.64798 9.37795C12.2132 6.39654 17.3509 3.7765 22.1228 4.91486C22.2691 4.951 22.7993 1.06613 22.0497 0.81316C15.6505 -1.319 9.81812 0.957713 5.30212 5.72798C0.402174 10.9138 -1.13363 18.5932 0.822692 25.4053C1.70029 28.4951 3.76632 31.0429 6.32599 33.0124C5.39354 35.5963 4.89989 38.3428 4.68049 41.0532C4.24169 46.8896 4.6622 53.4125 7.60583 58.6345C10.1472 63.1338 14.5718 66.2236 19.4169 67.9402C24.262 69.6748 30.7343 71.1023 35.5794 68.8255C36.1645 68.5364 36.1279 64.5251 35.5063 64.2902ZM21.4646 28.8565C22.324 28.9107 23.1833 29.0553 24.0243 29.2721C23.293 29.4347 22.6165 29.5612 22.1777 29.6154C20.2214 29.9226 18.2285 29.8865 16.2904 29.5793C17.9359 29.0372 19.7094 28.7481 21.4646 28.8565Z" fill="#FF730E"/>
</svg>
