<svg width="64" height="126" viewBox="0 0 64 126" fill="none" xmlns="http://www.w3.org/2000/svg">
<path d="M0.877697 115.722C6.17582 113.738 11.734 113.803 17.2596 112.99C22.2327 112.242 27.1733 111.006 31.8213 109.087C42.0925 104.794 50.446 96.6955 53.1763 85.6697C54.9965 78.189 52.3962 69.44 47.5532 62.805C45.928 63.6831 44.3028 64.4637 42.6451 65.1142C33.9341 68.4317 20.835 69.4725 13.1316 63.0001C9.32869 59.8127 10.1738 52.202 11.1814 47.9087C11.994 44.3635 15.4069 42.0218 18.5923 40.5907C27.2708 36.7203 37.5745 39.4849 44.2703 45.8272C45.4079 46.9005 46.4155 48.0713 47.3581 49.3073C52.1687 46.8029 56.4592 43.3228 59.352 38.8994C60.0021 37.8912 60.6522 36.7853 61.1398 35.6795C61.1723 35.5819 61.2048 35.4518 61.2373 35.3543C60.5872 34.4761 60.3922 32.6222 59.9046 31.5489C59.4171 30.4431 58.832 29.4023 58.2469 28.3615C55.7116 24.0682 52.4287 20.1003 48.6258 16.8803C42.2875 11.5138 33.154 6.79773 24.6705 8.84677C24.4104 8.91182 23.4678 1.91905 24.8005 1.4637C36.1768 -2.37419 46.5455 1.7239 54.574 10.3104C63.285 19.6449 66.0153 33.4678 62.5374 45.7296C60.9772 51.2913 57.3043 55.8772 52.7538 59.4224C54.4115 64.0734 55.2891 69.0171 55.6791 73.8958C56.4592 84.4012 55.7116 96.1426 50.4785 105.542C45.9605 113.641 38.0946 119.202 29.481 122.292C20.8675 125.415 9.36119 127.984 0.747684 123.886C-0.292435 123.366 -0.227432 116.145 0.877697 115.722ZM25.8406 51.9418C24.3129 52.0393 22.7853 52.2995 21.2901 52.6898C22.5902 52.9826 23.7929 53.2102 24.573 53.3078C28.0509 53.8607 31.5938 53.7957 35.0392 53.2427C32.1139 52.267 28.961 51.7466 25.8406 51.9418Z" fill="#FF730E"/>
</svg>
